<svg id="visual" viewBox="0 0 900 600" width="900" height="600" xmlns="http://www.w3.org/2000/svg" xmlns:xlink="http://www.w3.org/1999/xlink" version="1.1"><rect x="0" y="0" width="900" height="600" fill="#001220"></rect><defs><linearGradient id="grad1_0" x1="33.3%" y1="100%" x2="100%" y2="0%"><stop offset="20%" stop-color="#fbae3c" stop-opacity="1"></stop><stop offset="80%" stop-color="#fbae3c" stop-opacity="1"></stop></linearGradient></defs><defs><linearGradient id="grad1_1" x1="33.3%" y1="100%" x2="100%" y2="0%"><stop offset="20%" stop-color="#fbae3c" stop-opacity="1"></stop><stop offset="80%" stop-color="#001220" stop-opacity="1"></stop></linearGradient></defs><defs><linearGradient id="grad2_0" x1="0%" y1="100%" x2="66.7%" y2="0%"><stop offset="20%" stop-color="#fbae3c" stop-opacity="1"></stop><stop offset="80%" stop-color="#fbae3c" stop-opacity="1"></stop></linearGradient></defs><defs><linearGradient id="grad2_1" x1="0%" y1="100%" x2="66.7%" y2="0%"><stop offset="20%" stop-color="#001220" stop-opacity="1"></stop><stop offset="80%" stop-color="#fbae3c" stop-opacity="1"></stop></linearGradient></defs><g transform="translate(900, 600)"><path d="M-513.8 0C-472.7 -62 -431.6 -124 -385.3 -159.6C-338.9 -195.1 -287.4 -204.3 -261.6 -261.6C-235.9 -319 -235.9 -424.6 -196.6 -474.7C-157.3 -524.7 -78.7 -519.3 0 -513.8L0 0Z" fill="#96446e"></path><path d="M-256.9 0C-236.3 -31 -215.8 -62 -192.6 -79.8C-169.5 -97.6 -143.7 -102.1 -130.8 -130.8C-117.9 -159.5 -118 -212.3 -98.3 -237.3C-78.7 -262.4 -39.3 -259.6 0 -256.9L0 0Z" fill="#fbae3c"></path></g><g transform="translate(0, 0)"><path d="M513.8 0C514.5 75.3 515.2 150.5 474.7 196.6C434.2 242.7 352.4 259.6 301.9 301.9C251.5 344.3 232.2 412.2 187.1 451.8C142 491.3 71 502.6 0 513.8L0 0Z" fill="#96446e"></path><path d="M256.9 0C257.2 37.6 257.6 75.3 237.3 98.3C217.1 121.3 176.2 129.8 151 151C125.7 172.2 116.1 206.1 93.6 225.9C71 245.7 35.5 251.3 0 256.9L0 0Z" fill="#fbae3c"></path></g></svg>